<?xml version="1.0" encoding="iso-8859-1"?>
<!-- Generator: Adobe Illustrator 18.1.1, SVG Export Plug-In . SVG Version: 6.00 Build 0)  -->
<svg version="1.1" id="Capa_1" xmlns="http://www.w3.org/2000/svg" xmlns:xlink="http://www.w3.org/1999/xlink" x="0px" y="0px"
	 viewBox="0 0 337.191 337.191" style="enable-background:new 0 0 337.191 337.191;" xml:space="preserve">
<g>
	<g id="Layer_5_24_">
		<g>
			<circle cx="79.673" cy="187.722" r="16.196"/>
			<path d="M324.644,199.081c0-53.811-38.338-105.951-118.564-87.282c-3.29,0-2.871-2.415-2.033-3.647
				c9.146-13.452,11.827-28.848,7.729-45.238c-7.166-28.663-31.931-39.854-50.013-48.024c-8.514-3.847-14.964-6.929-17.982-9.955
				c-1.292-1.296-3.559-3.912-6.409-3.912L126.946,0c-3.241,0-3.392,2.899-3.236,4.244c1.668,14.325,16.306,20.939,30.503,27.354
				c17.09,7.722,34.761,15.708,39.775,35.763c6.181,24.725-11.581,40.139-23.515,47.446c-1.887,1.155-5.385,2.894-7.439,2.749
				c-5.736-0.222-8.856-0.735-12.112-1.748C63.097,88.467,12.547,142.513,12.547,199.081c0,23.872-0.159,46.833,0.618,66.949
				c1.61,41.694,7.241,71.161,26.637,71.161c23.489,0,42.698-44.428,84.498-86.228c14.144-14.145,74.447-14.145,88.59,0
				c50.959,50.958,56.819,86.228,84.499,86.228c19.551,0,25.116-28.9,26.675-71.163
				C324.798,246.134,324.644,223.278,324.644,199.081z M79.673,225.307c-20.758,0-37.586-16.828-37.586-37.585
				c0-20.758,16.828-37.586,37.586-37.586s37.586,16.828,37.586,37.586S100.431,225.307,79.673,225.307z M176.697,217.668h-16.195
				c-3.797,0-6.875-3.078-6.875-6.876c0-3.797,3.078-6.875,6.875-6.875h16.195c3.797,0,6.875,3.078,6.875,6.875
				C183.572,214.59,180.494,217.668,176.697,217.668z M176.697,187.34h-16.195c-3.797,0-6.875-3.079-6.875-6.876
				s3.078-6.875,6.875-6.875h16.195c3.797,0,6.875,3.078,6.875,6.875C183.572,184.261,180.494,187.34,176.697,187.34z
				 M176.697,157.012h-16.195c-3.797,0-6.875-3.078-6.875-6.875s3.078-6.875,6.875-6.875h16.195c3.797,0,6.875,3.078,6.875,6.875
				S180.494,157.012,176.697,157.012z M294.033,194.18c0,3.025-2.475,5.501-5.5,5.501h-12.767c-3.024,0-5.5,0.833-5.5,1.851
				s0,4.325,0,7.351v9.065c0,3.024-2.475,5.5-5.5,5.5H252c-3.024,0-5.5-2.476-5.5-5.5v-9.065c0-3.026,0-6.333,0-7.351
				s-2.474-1.851-5.5-1.851h-12.766c-3.024,0-5.5-2.476-5.5-5.501v-12.766c0-3.025,2.477-5.501,5.5-5.501H241
				c3.026,0,5.5-2.475,5.5-5.5v-12.765c0-3.025,2.477-5.5,5.5-5.5h12.766c3.026,0,5.5,2.475,5.5,5.5v12.765
				c0,3.025,2.476,5.5,5.5,5.5h12.767c3.026,0,5.5,2.476,5.5,5.501V194.18z"/>
		</g>
	</g>
</g>
<g>
</g>
<g>
</g>
<g>
</g>
<g>
</g>
<g>
</g>
<g>
</g>
<g>
</g>
<g>
</g>
<g>
</g>
<g>
</g>
<g>
</g>
<g>
</g>
<g>
</g>
<g>
</g>
<g>
</g>
</svg>
